<svg width="13" height="16" viewBox="0 0 13 16" fill="none" xmlns="http://www.w3.org/2000/svg">
<path fill-rule="evenodd" clip-rule="evenodd" d="M6.51208 0C7.3911 0 8.24448 0.173973 9.04658 0.512762C9.82122 0.840563 10.5171 1.31121 11.1159 1.90821C11.7148 2.50521 12.1836 3.2011 12.5114 3.97757C12.8502 4.7815 13.0223 5.63489 13.0242 6.51208C13.0242 7.63099 12.7348 8.73526 12.1891 9.70402C11.2983 11.2847 8.23827 14.4301 7.16242 15.5144L6.79043 15.8865C6.71352 15.9615 6.6128 16 6.51208 16C6.41135 16 6.31063 15.9634 6.23372 15.8865L5.86173 15.5144C4.78588 14.4301 1.72584 11.2847 0.835069 9.70402C0.289344 8.73526 0 7.63099 0 6.51208C0 5.63306 0.173973 4.7815 0.512762 3.97757C0.840563 3.20293 1.30937 2.50704 1.90821 1.90821C2.50521 1.31121 3.2011 0.840563 3.97757 0.512762C4.77967 0.172141 5.63306 0 6.51208 0ZM6.51208 3.80485C5.02046 3.80485 3.81126 5.01405 3.81126 6.50567C3.81126 7.99728 5.02046 9.20648 6.51208 9.20648C8.00369 9.20648 9.21289 7.99728 9.21289 6.50567C9.21289 5.01405 8.00369 3.80485 6.51208 3.80485Z" fill="url(#paint0_linear_1387_2975)"/>
<defs>
<linearGradient id="paint0_linear_1387_2975" x1="1.51273" y1="-4.4936" x2="14.3993" y2="14.2223" gradientUnits="userSpaceOnUse">
<stop stop-color="#FFBB2B"/>
<stop offset="1" stop-color="#FF7F0B"/>
</linearGradient>
</defs>
</svg>
