  <svg width="28" height="28" viewBox="0 0 28 28" fill="none" xmlns="http://www.w3.org/2000/svg">
  <circle cx="14" cy="14" r="14" fill="#FFF4EA"/>
  <ellipse cx="13.9999" cy="14" rx="10.0001" ry="10.3399" fill="#FF7C18"/>
  <path d="M14 1C21.1747 1 27 6.82533 27 14C27 21.1747 21.1747 27 14 27C6.82529 27 0.999969 21.1747 0.999969 14C0.999969 6.82533 6.82529 1 14 1ZM13.9013 15.0038C11.219 15.0038 8.89871 16.0734 7.69745 17.6367C7.15441 18.3443 6.84175 19.1671 6.84175 20.0393C6.84175 22.8203 20.9443 22.8203 20.9443 20.0393C20.9443 19.1507 20.6152 18.3114 20.0557 17.5874C18.8709 16.0405 16.5506 15.0038 13.9013 15.0038ZM13.9013 6.4633C11.7291 6.4633 9.98479 8.2076 9.98479 10.3468C9.98479 12.4861 11.7456 14.2304 13.9013 14.2304C16.057 14.2304 17.8177 12.5025 17.8177 10.3468C17.8177 8.19115 16.0734 6.4633 13.9013 6.4633Z" fill="#FFF4EA"/>
  </svg>
