<svg width="28" height="28" viewBox="0 0 28 28" fill="none" xmlns="http://www.w3.org/2000/svg">
<circle opacity="0.6" cx="14" cy="14" r="14" fill="black"/>
<path opacity="0.8" d="M13.9013 14.0039C11.219 14.0039 8.89876 15.0735 7.69749 16.6368C7.15446 17.3444 6.8418 18.1672 6.8418 19.0393C6.8418 21.8204 20.9443 21.8204 20.9443 19.0393C20.9443 18.1507 20.6152 17.3115 20.0557 16.5874C18.8709 15.0406 16.5507 14.0039 13.9013 14.0039ZM13.9013 5.46338C11.7291 5.46338 9.98484 7.20768 9.98484 9.34693C9.98484 11.4862 11.7456 13.2305 13.9013 13.2305C16.057 13.2305 17.8178 11.5026 17.8178 9.34693C17.8178 7.19123 16.0735 5.46338 13.9013 5.46338Z" fill="white"/>
</svg>